<svg width="564" height="296" viewBox="0 0 564 296" fill="none" xmlns="http://www.w3.org/2000/svg">
<path d="M344.529 210.48C345.409 209.04 346.739 207.87 348.399 207.19C352.549 205.5 357.479 207.62 359.099 211.8C360.749 216.06 358.579 220.83 354.309 222.41C352.529 223.07 350.659 223.06 348.979 222.52C348.309 222.3 347.669 222.94 347.919 223.6L352.599 236.3C352.869 237.02 352.499 237.82 351.779 238.09L339.079 242.77C338.419 243.01 337.779 242.39 337.989 241.73C338.509 240.13 338.539 238.36 337.979 236.65C336.569 232.4 331.759 230.02 327.529 231.51C323.219 233.02 320.989 237.77 322.569 242.04C323.229 243.82 324.439 245.24 325.939 246.16C326.539 246.53 326.469 247.42 325.799 247.67L313.099 252.35C312.379 252.62 311.579 252.25 311.309 251.53L294.299 204.51C294.029 203.79 294.399 202.99 295.119 202.72L333.779 188.47C334.499 188.2 335.299 188.57 335.569 189.29L343.009 210.35C343.249 211.01 344.139 211.1 344.509 210.5L344.529 210.48Z" fill="#D8F2C8" stroke="#2E2A47" stroke-width="1.5" stroke-miterlimit="10"/>
<path opacity="0.5" d="M288.867 209.94C294.914 209.815 299.713 204.812 299.588 198.765C299.462 192.719 294.459 187.919 288.412 188.045C282.366 188.171 277.567 193.174 277.692 199.22C277.818 205.266 282.821 210.066 288.867 209.94Z" fill="#F59DB6"/>
<path d="M288.608 209.956C294.654 209.83 299.453 204.827 299.328 198.781C299.202 192.734 294.199 187.935 288.153 188.06C282.107 188.186 277.307 193.189 277.432 199.235C277.558 205.282 282.561 210.081 288.608 209.956Z" fill="#F59DB6"/>
<path fill-rule="evenodd" clip-rule="evenodd" d="M238.06 238.93L256.88 229.69C258.41 228.94 260.25 229.57 261 231.09L270.25 249.89C271.46 252.35 275.05 252.12 275.93 249.52L294.07 196.28C294.62 194.67 293.76 192.92 292.15 192.37L255.84 180C254.23 179.45 252.48 180.31 251.93 181.92L233.79 235.17C232.91 237.77 235.6 240.14 238.06 238.93Z" fill="#EAC9F8"/>
<path fill-rule="evenodd" clip-rule="evenodd" d="M264.969 229.47C263.679 226.86 261.199 225.18 258.479 225.09C258.339 225.09 258.209 225.09 258.069 225.09C256.989 225.11 255.949 225.37 254.979 225.84L239.279 233.55C239.089 233.64 238.879 233.46 238.949 233.26L254.999 186.13C255.319 185.19 256.349 184.68 257.289 185.01L287.909 195.45C288.849 195.77 289.359 196.79 289.029 197.74L272.979 244.85C272.909 245.05 272.629 245.07 272.539 244.88L264.959 229.47H264.969Z" stroke="white" stroke-width="0.48" stroke-miterlimit="10"/>
<path d="M288.66 200.78C291.736 200.78 294.23 198.286 294.23 195.21C294.23 192.134 291.736 189.64 288.66 189.64C285.584 189.64 283.09 192.134 283.09 195.21C283.09 198.286 285.584 200.78 288.66 200.78Z" fill="#F59DB6"/>
<path d="M288.608 209.936C294.654 209.81 299.453 204.807 299.328 198.761C299.202 192.714 294.199 187.915 288.153 188.04C282.107 188.166 277.307 193.169 277.432 199.215C277.558 205.262 282.561 210.061 288.608 209.936Z" fill="#F59DB6"/>
<path fill-rule="evenodd" clip-rule="evenodd" d="M295.039 55.94L300.179 58.77C303.059 60.36 306.309 61.16 309.599 61.09L315.459 60.97C322.159 60.83 328.419 64.28 331.889 70.01L334.929 75.03C336.629 77.85 339.049 80.16 341.929 81.75L347.069 84.58C352.939 87.81 356.639 93.92 356.779 100.62L356.899 106.48C356.969 109.77 357.899 112.98 359.609 115.8L362.649 120.82C366.119 126.55 366.269 133.7 363.039 139.57L360.209 144.71C358.619 147.59 357.819 150.84 357.889 154.13L358.009 159.99C358.149 166.69 354.699 172.95 348.969 176.42L343.949 179.46C341.129 181.16 338.819 183.58 337.229 186.46L334.399 191.6C331.169 197.47 325.059 201.17 318.359 201.31L312.499 201.43C309.209 201.5 305.999 202.43 303.179 204.14L298.159 207.18C292.429 210.65 285.279 210.8 279.409 207.57L274.269 204.74C271.389 203.15 268.139 202.35 264.849 202.42L258.989 202.54C252.289 202.68 246.029 199.23 242.559 193.5L239.519 188.48C237.819 185.66 235.399 183.35 232.519 181.76L227.379 178.93C221.509 175.7 217.809 169.59 217.669 162.89L217.549 157.03C217.479 153.74 216.549 150.53 214.839 147.71L211.799 142.69C208.329 136.96 208.179 129.81 211.409 123.94L214.239 118.8C215.829 115.92 216.629 112.67 216.559 109.38L216.439 103.52C216.299 96.82 219.749 90.56 225.479 87.09L230.499 84.05C233.319 82.35 235.629 79.93 237.219 77.05L240.049 71.91C243.279 66.04 249.389 62.34 256.089 62.2L261.949 62.08C265.239 62.01 268.449 61.08 271.269 59.37L276.289 56.33C282.019 52.86 289.169 52.71 295.039 55.94Z" fill="white" stroke="#5E58A5" stroke-width="4.96" stroke-miterlimit="10"/>
<path d="M255.771 122.74C255.011 121.31 253.961 120.24 252.611 119.54C251.271 118.84 249.691 118.5 247.891 118.54L240.711 118.69H240.701C239.081 118.72 237.801 120.06 237.831 121.68L237.861 123.27L238.411 149.68C238.411 149.98 238.491 150.23 238.641 150.43C238.791 150.63 239.001 150.72 239.271 150.71L241.211 150.67C241.481 150.67 241.691 150.56 241.841 150.36C241.991 150.16 242.071 149.91 242.061 149.6L241.841 139.07C241.831 138.58 242.221 138.17 242.711 138.16L248.291 138.04C250.091 138 251.651 137.61 252.961 136.85C254.271 136.09 255.281 134.99 255.981 133.54C256.681 132.09 257.011 130.29 256.961 128.13C256.921 125.97 256.511 124.17 255.751 122.74H255.771ZM252.061 132.62C251.181 133.64 249.841 134.17 248.031 134.21L242.641 134.32C242.131 134.33 241.701 133.92 241.691 133.41L241.481 123.44C241.471 122.93 241.881 122.5 242.391 122.49L247.781 122.38C249.631 122.34 251.011 122.83 251.911 123.85C252.811 124.87 253.281 126.32 253.321 128.21C253.361 130.13 252.941 131.6 252.061 132.63V132.62Z" fill="#5E58A5"/>
<path d="M241.21 150.73L239.27 150.77C238.98 150.77 238.76 150.67 238.59 150.46C238.43 150.26 238.35 149.99 238.34 149.68L237.76 121.68C237.73 120.03 239.04 118.66 240.69 118.63L247.88 118.48C249.69 118.44 251.28 118.78 252.63 119.48C253.98 120.19 255.05 121.27 255.81 122.71C256.57 124.14 256.98 125.96 257.02 128.13C257.06 130.3 256.73 132.13 256.03 133.57C255.33 135.02 254.3 136.14 252.99 136.9C251.68 137.66 250.09 138.06 248.29 138.1L242.71 138.22C242.25 138.22 241.88 138.61 241.89 139.07L242.11 149.6C242.11 149.92 242.04 150.18 241.88 150.4C241.71 150.62 241.49 150.73 241.2 150.73H241.21ZM240.71 118.75C239.12 118.78 237.85 120.1 237.89 121.68L238.47 149.68C238.47 149.98 238.55 150.21 238.69 150.39C238.83 150.57 239.02 150.66 239.27 150.65L241.21 150.61C241.46 150.61 241.65 150.51 241.8 150.32C241.95 150.13 242.02 149.89 242.01 149.6L241.79 139.07C241.78 138.55 242.2 138.11 242.72 138.1L248.3 137.98C250.09 137.94 251.65 137.54 252.95 136.79C254.25 136.04 255.26 134.94 255.95 133.51C256.64 132.08 256.97 130.27 256.93 128.12C256.89 125.98 256.48 124.17 255.73 122.76C254.98 121.35 253.92 120.28 252.6 119.58C251.27 118.89 249.69 118.55 247.91 118.59L240.73 118.74L240.71 118.75ZM248.03 134.28L242.64 134.39C242.09 134.4 241.64 133.97 241.63 133.42L241.42 123.45C241.41 122.9 241.84 122.45 242.39 122.44L247.78 122.33C249.64 122.29 251.05 122.79 251.95 123.82C252.85 124.84 253.33 126.32 253.37 128.22C253.41 130.14 252.98 131.64 252.09 132.68C251.2 133.71 249.83 134.25 248.02 134.29L248.03 134.28ZM242.39 122.56C241.91 122.56 241.53 122.97 241.54 123.45L241.75 133.42C241.75 133.9 242.16 134.28 242.64 134.27L248.03 134.16C249.81 134.12 251.15 133.59 252.01 132.59C252.88 131.58 253.3 130.11 253.26 128.21C253.22 126.31 252.75 124.89 251.87 123.89C250.99 122.89 249.61 122.4 247.79 122.44L242.4 122.55L242.39 122.56Z" fill="#5E58A5"/>
<path d="M291.18 149.63C290.98 149.63 290.81 149.55 290.66 149.37C290.51 149.19 290.43 148.98 290.43 148.74C290.43 148.59 290.43 148.42 290.45 148.24L298.9 118.49C298.99 118.18 299.12 117.94 299.29 117.75C299.45 117.56 299.71 117.47 300.05 117.46L302.54 117.41C302.88 117.41 303.14 117.49 303.31 117.67C303.48 117.85 303.62 118.09 303.73 118.39L313.37 147.76C313.42 147.94 313.45 148.11 313.45 148.26C313.45 148.51 313.39 148.72 313.25 148.9C313.11 149.09 312.94 149.18 312.74 149.19L310.88 149.23C310.59 149.23 310.37 149.15 310.23 148.97C310.09 148.79 310 148.63 309.95 148.47L308.04 142.74C307.9 142.31 307.49 142.03 307.04 142.04L296.56 142.26C296.11 142.26 295.72 142.57 295.59 143L293.92 148.8C293.9 148.95 293.82 149.12 293.68 149.31C293.54 149.5 293.32 149.59 293.03 149.6L291.17 149.64L291.18 149.63ZM297.36 138.3L306.1 138.12C306.38 138.12 306.58 137.84 306.49 137.57L301.82 123.29C301.69 122.9 301.13 122.91 301.02 123.31L296.95 137.77C296.87 138.04 297.08 138.31 297.36 138.3Z" fill="#5E58A5"/>
<path d="M312.739 149.24L310.879 149.28C310.569 149.28 310.339 149.19 310.189 148.99C310.049 148.81 309.949 148.63 309.899 148.48L307.989 142.75C307.859 142.34 307.479 142.08 307.049 142.09L296.569 142.31C296.139 142.31 295.779 142.6 295.659 143.01L293.989 148.81C293.969 148.97 293.879 149.15 293.729 149.34C293.579 149.54 293.339 149.65 293.029 149.65L291.169 149.69C290.959 149.69 290.769 149.6 290.599 149.4C290.439 149.21 290.359 148.99 290.359 148.73C290.359 148.58 290.359 148.41 290.379 148.22L298.829 118.46C298.919 118.15 299.059 117.89 299.229 117.7C299.399 117.5 299.669 117.4 300.029 117.39L302.519 117.34C302.879 117.34 303.149 117.42 303.339 117.61C303.519 117.8 303.659 118.05 303.769 118.35L313.409 147.72C313.459 147.91 313.489 148.08 313.499 148.24C313.499 148.5 313.429 148.73 313.279 148.92C313.129 149.12 312.939 149.22 312.729 149.23L312.739 149.24ZM296.569 142.19L307.049 141.97C307.529 141.97 307.949 142.26 308.099 142.71L310.009 148.44C310.059 148.58 310.149 148.74 310.279 148.92C310.409 149.09 310.599 149.16 310.879 149.16L312.739 149.12C312.919 149.12 313.069 149.03 313.199 148.86C313.329 148.69 313.399 148.49 313.389 148.25C313.389 148.11 313.359 147.94 313.309 147.77L303.669 118.4C303.569 118.11 303.429 117.87 303.269 117.7C303.109 117.53 302.859 117.45 302.539 117.46L300.049 117.51C299.719 117.51 299.489 117.6 299.329 117.78C299.169 117.96 299.039 118.2 298.949 118.5L290.499 148.25C290.479 148.43 290.479 148.59 290.479 148.73C290.479 148.96 290.559 149.16 290.699 149.33C290.839 149.5 290.989 149.58 291.169 149.57L293.029 149.53C293.309 149.53 293.499 149.44 293.639 149.26C293.769 149.09 293.849 148.93 293.869 148.78L295.539 142.97C295.669 142.51 296.079 142.19 296.559 142.18L296.569 142.19ZM306.099 138.18L297.359 138.36C297.209 138.36 297.069 138.3 296.969 138.18C296.869 138.06 296.849 137.91 296.889 137.76L300.959 123.3C301.019 123.09 301.189 122.96 301.409 122.95C301.629 122.94 301.809 123.07 301.869 123.28L306.539 137.56C306.589 137.7 306.559 137.86 306.479 137.98C306.399 138.1 306.249 138.18 306.099 138.18ZM301.419 123.07C301.299 123.07 301.139 123.14 301.079 123.33L297.009 137.79C296.979 137.9 297.009 138.02 297.069 138.11C297.139 138.2 297.249 138.25 297.359 138.25L306.099 138.07C306.209 138.07 306.319 138.01 306.389 137.92C306.459 137.83 306.469 137.71 306.439 137.6L301.769 123.32C301.709 123.13 301.539 123.07 301.419 123.07Z" fill="#5E58A5"/>
<path d="M272.58 148.92L264.33 135.46C263.56 134.2 263.54 132.62 264.29 131.34L271.86 118.42C272.63 117.1 274.52 117.06 275.35 118.35L283.47 130.97C284.26 132.2 284.32 133.76 283.62 135.05L276.12 148.83C275.37 150.21 273.4 150.26 272.58 148.92Z" fill="#5E58A5"/>
<path d="M274.371 149.96C273.611 149.98 272.931 149.6 272.531 148.96L264.281 135.5C263.491 134.22 263.481 132.62 264.241 131.32L271.811 118.4C272.181 117.76 272.851 117.38 273.581 117.36C274.311 117.34 275.001 117.71 275.391 118.33L283.511 130.95C284.311 132.2 284.371 133.79 283.661 135.09L276.161 148.87C275.801 149.54 275.131 149.95 274.371 149.97H274.361L274.371 149.96ZM272.631 148.89C273.001 149.5 273.651 149.85 274.371 149.84H274.381C275.101 149.82 275.731 149.43 276.071 148.8L283.571 135.02C284.261 133.75 284.201 132.21 283.421 131L275.301 118.38C274.921 117.79 274.281 117.45 273.591 117.47C272.901 117.49 272.271 117.85 271.921 118.45L264.351 131.37C263.611 132.63 263.631 134.18 264.391 135.43L272.641 148.89H272.631Z" fill="#5E58A5"/>
<path d="M273.641 143.56L267.701 133.87C267.581 133.67 267.571 133.41 267.701 133.21L273.181 123.87C273.421 123.46 274.021 123.44 274.271 123.85L280.131 132.96C280.261 133.16 280.271 133.41 280.151 133.61L274.751 143.53C274.511 143.96 273.901 143.98 273.641 143.56Z" fill="white"/>
<path d="M338.37 121.02C337.61 119.59 336.56 118.52 335.21 117.82C333.87 117.12 332.29 116.78 330.49 116.82L323.31 116.97H323.3C321.68 117 320.4 118.34 320.43 119.96L320.46 121.55L321.01 147.96C321.01 148.26 321.09 148.51 321.24 148.71C321.39 148.91 321.6 149 321.87 148.99L323.81 148.95C324.08 148.95 324.29 148.84 324.44 148.64C324.59 148.44 324.67 148.19 324.66 147.88L324.44 137.35C324.43 136.86 324.82 136.45 325.31 136.44L330.89 136.32C332.69 136.28 334.25 135.89 335.56 135.13C336.87 134.37 337.88 133.27 338.58 131.82C339.28 130.37 339.61 128.57 339.56 126.41C339.52 124.25 339.11 122.45 338.35 121.02H338.37ZM334.66 130.9C333.78 131.92 332.44 132.45 330.63 132.49L325.24 132.6C324.73 132.61 324.3 132.2 324.29 131.69L324.08 121.72C324.07 121.21 324.48 120.78 324.99 120.77L330.38 120.66C332.23 120.62 333.61 121.11 334.51 122.13C335.41 123.15 335.88 124.6 335.92 126.49C335.96 128.41 335.54 129.88 334.66 130.91V130.9Z" fill="#5E58A5"/>
<path d="M323.81 149.01L321.87 149.05C321.58 149.05 321.36 148.95 321.19 148.74C321.03 148.54 320.95 148.27 320.94 147.96L320.36 119.96C320.33 118.31 321.64 116.94 323.29 116.91L330.48 116.76C332.29 116.72 333.88 117.06 335.23 117.76C336.58 118.47 337.65 119.55 338.41 120.99C339.17 122.42 339.58 124.25 339.63 126.41C339.67 128.57 339.34 130.4 338.64 131.85C337.94 133.3 336.91 134.42 335.6 135.18C334.29 135.94 332.7 136.34 330.9 136.38L325.32 136.5C324.86 136.5 324.49 136.89 324.5 137.35L324.72 147.88C324.72 148.2 324.65 148.46 324.49 148.68C324.32 148.9 324.1 149.01 323.81 149.01ZM323.31 117.03C321.72 117.06 320.45 118.38 320.49 119.96L321.07 147.96C321.07 148.26 321.15 148.49 321.29 148.67C321.43 148.85 321.62 148.94 321.87 148.93L323.81 148.89C324.06 148.89 324.25 148.79 324.4 148.6C324.55 148.41 324.62 148.17 324.61 147.88L324.39 137.35C324.38 136.83 324.8 136.39 325.32 136.38L330.9 136.26C332.69 136.22 334.25 135.82 335.55 135.07C336.85 134.32 337.86 133.22 338.55 131.79C339.24 130.36 339.57 128.55 339.53 126.4C339.49 124.25 339.08 122.45 338.33 121.04C337.58 119.63 336.52 118.56 335.2 117.86C333.87 117.17 332.29 116.83 330.51 116.87L323.33 117.02L323.31 117.03ZM330.63 132.56L325.24 132.67C324.69 132.68 324.24 132.25 324.23 131.7L324.02 121.73C324.01 121.18 324.44 120.73 324.99 120.72L330.38 120.61C332.24 120.57 333.65 121.07 334.55 122.1C335.45 123.12 335.93 124.6 335.97 126.5C336.01 128.42 335.58 129.92 334.69 130.96C333.8 131.99 332.43 132.53 330.62 132.57L330.63 132.56ZM324.99 120.84C324.51 120.84 324.13 121.25 324.14 121.73L324.35 131.7C324.35 132.18 324.76 132.56 325.24 132.55L330.63 132.44C332.41 132.4 333.75 131.87 334.61 130.87C335.48 129.86 335.9 128.39 335.86 126.49C335.82 124.59 335.35 123.17 334.47 122.17C333.59 121.17 332.21 120.68 330.39 120.72L325 120.83L324.99 120.84Z" fill="#5E58A5"/>
<path d="M365.281 119.2L362.241 114.18C360.821 111.83 360.031 109.13 359.981 106.39L359.861 100.53C359.701 92.7599 355.371 85.6099 348.561 81.8599L343.421 79.0299C341.011 77.7099 338.991 75.7599 337.561 73.4099L334.521 68.3899C330.491 61.7399 323.161 57.6799 315.401 57.8699L309.541 57.9899C306.801 58.0299 304.071 57.3799 301.661 56.0499L296.521 53.2199C289.711 49.4799 281.351 49.6499 274.701 53.6699L269.681 56.7099C267.331 58.1299 264.631 58.9099 261.891 58.9699L256.031 59.0899C248.261 59.2499 241.111 63.5799 237.361 70.3899L234.531 75.5299C233.211 77.9399 231.261 79.9599 228.911 81.3799L223.891 84.4199C217.241 88.4499 213.211 95.7699 213.371 103.54L213.491 109.4C213.551 112.15 212.881 114.87 211.551 117.28L208.721 122.42C204.971 129.23 205.151 137.59 209.171 144.24L212.211 149.26C213.631 151.61 214.421 154.31 214.471 157.05L214.591 162.91C214.751 170.68 219.081 177.83 225.891 181.58L231.031 184.41C233.441 185.73 235.461 187.68 236.881 190.03L239.921 195.05C241.351 197.42 243.211 199.45 245.351 201.08L233.751 235.14C232.871 237.74 235.561 240.11 238.031 238.9L256.851 229.66C258.381 228.91 260.221 229.54 260.971 231.07L270.221 249.87C271.431 252.33 275.021 252.1 275.901 249.5L288.371 212.9C288.371 212.9 288.421 212.9 288.451 212.9C292.381 212.9 296.301 211.85 299.761 209.76L304.781 206.72C307.131 205.3 309.831 204.52 312.571 204.46L318.431 204.34C326.201 204.18 333.351 199.85 337.101 193.04L339.931 187.9C341.251 185.49 343.201 183.47 345.551 182.05L350.571 179.01C357.221 174.98 361.251 167.66 361.091 159.89L360.971 154.03C360.911 151.28 361.581 148.56 362.911 146.15L365.741 141.01C369.491 134.2 369.311 125.84 365.291 119.19L365.281 119.2Z" stroke="#2E2A47" stroke-width="1.5" stroke-miterlimit="10"/>
<path d="M132.389 257.8C133.029 257.92 133.629 258.23 134.109 258.73C135.289 259.99 135.219 262.05 133.939 263.21C132.639 264.39 130.619 264.28 129.469 262.96C128.989 262.41 128.729 261.74 128.689 261.06C128.669 260.79 128.359 260.65 128.149 260.83L124.239 264.27C124.019 264.47 123.679 264.44 123.479 264.22L120.039 260.31C119.859 260.11 119.989 259.79 120.259 259.78C120.909 259.74 121.549 259.51 122.079 259.07C123.409 257.97 123.589 255.92 122.469 254.6C121.349 253.28 119.319 253.12 117.999 254.28C117.449 254.76 117.109 255.4 116.989 256.06C116.939 256.33 116.609 256.43 116.429 256.22L112.989 252.31C112.789 252.09 112.819 251.75 113.039 251.55L124.939 241.06C125.159 240.86 125.499 240.89 125.699 241.11L136.189 253.01C136.389 253.23 136.359 253.57 136.139 253.77L132.229 257.21C132.029 257.39 132.119 257.72 132.389 257.77V257.8Z" fill="#C2E6F5" stroke="#2E2A47" stroke-width="1.5" stroke-miterlimit="10"/>
<path d="M419.11 80.92C418.91 81.53 418.51 82.09 417.95 82.49C416.54 83.49 414.51 83.12 413.54 81.7C412.55 80.25 412.94 78.27 414.41 77.3C415.02 76.9 415.72 76.74 416.4 76.79C416.67 76.81 416.85 76.52 416.7 76.29L413.83 71.94C413.67 71.69 413.74 71.36 413.98 71.2L418.33 68.33C418.56 68.18 418.85 68.36 418.83 68.63C418.77 69.28 418.92 69.94 419.28 70.53C420.18 72 422.19 72.47 423.65 71.54C425.11 70.61 425.55 68.62 424.59 67.16C424.19 66.55 423.61 66.12 422.96 65.91C422.7 65.82 422.65 65.48 422.88 65.33L427.23 62.46C427.48 62.3 427.81 62.37 427.97 62.61L436.7 75.86C436.86 76.11 436.79 76.44 436.55 76.6L423.3 85.33C423.05 85.49 422.72 85.42 422.56 85.18L419.69 80.83C419.54 80.6 419.2 80.65 419.12 80.91L419.11 80.92Z" fill="#D8F2C8" stroke="#2E2A47" stroke-width="1.5" stroke-miterlimit="10"/>
<path d="M431.759 150.64C430.309 151.4 429.359 152.66 428.959 154.07C428.829 154.53 428.229 154.64 427.949 154.25L422.529 146.8C422.219 146.38 421.629 146.28 421.209 146.59L413.759 152.01C413.369 152.29 412.829 152.01 412.849 151.53C412.899 150.33 412.559 149.1 411.789 148.05C409.759 145.25 405.599 144.91 403.129 147.62C401.679 149.22 401.309 151.61 402.209 153.58C402.949 155.19 404.279 156.24 405.779 156.66C406.239 156.79 406.349 157.39 405.959 157.67L383.619 173.41C382.259 174.37 382.739 176.49 384.369 176.77L399.349 179.38C400.369 179.56 401.049 180.53 400.869 181.55L398.339 195.76C398.049 197.4 399.889 198.57 401.249 197.61L423.559 181.9C423.949 181.62 423.829 181.02 423.369 180.89C422.219 180.56 421.159 179.86 420.399 178.81C418.469 176.15 419.229 172.36 422.179 170.69C424.319 169.48 427.109 169.86 428.839 171.62C429.989 172.79 430.509 174.29 430.449 175.75C430.429 176.23 430.969 176.51 431.349 176.23L438.799 170.81C439.219 170.5 439.319 169.91 439.009 169.49L433.589 162.04C433.309 161.65 433.589 161.11 434.069 161.13C435.269 161.18 436.499 160.84 437.549 160.07C440.209 158.14 440.649 154.28 438.359 151.79C436.689 149.98 433.919 149.49 431.739 150.63L431.759 150.64Z" fill="#C2E6F5" stroke="#2E2A47" stroke-width="1.5" stroke-miterlimit="10"/>
<path d="M159.77 18.2999C160.36 19.2299 161.27 19.7999 162.24 19.9899C162.56 20.0499 162.66 20.4499 162.42 20.6599L157.72 24.7299C157.45 24.9599 157.42 25.3699 157.65 25.6299L161.72 30.3299C161.93 30.5699 161.77 30.9499 161.45 30.9699C160.64 31.0099 159.83 31.3099 159.17 31.8799C157.4 33.4099 157.41 36.2199 159.38 37.7199C160.54 38.6099 162.17 38.7199 163.44 37.9999C164.48 37.4099 165.11 36.4499 165.31 35.4199C165.37 35.0999 165.77 34.9999 165.98 35.2399L177.83 49.3599C178.55 50.2199 179.95 49.7799 180.05 48.6599L180.95 38.4399C181.01 37.7499 181.63 37.2299 182.32 37.2999L192.02 38.1899C193.14 38.2899 193.82 36.9899 193.1 36.1299L181.26 22.0299C181.05 21.7799 180.65 21.8999 180.59 22.2199C180.44 23.0199 180.02 23.7699 179.36 24.3399C177.68 25.7899 175.09 25.4899 173.8 23.6099C172.86 22.2399 172.96 20.3399 174.04 19.0799C174.76 18.2399 175.74 17.8099 176.73 17.7599C177.05 17.7499 177.21 17.3699 177 17.1199L172.93 12.4199C172.7 12.1499 172.3 12.1199 172.03 12.3499L167.33 16.4199C167.09 16.6299 166.71 16.4699 166.69 16.1499C166.65 15.3399 166.35 14.5299 165.78 13.8699C164.33 12.1899 161.71 12.1099 160.17 13.7999C159.05 15.0299 158.88 16.9199 159.77 18.3199V18.2999Z" fill="#B5AEFF" stroke="#2E2A47" stroke-width="1.5" stroke-linecap="round" stroke-linejoin="round"/>
<path d="M11.3509 146.79C10.9409 146.29 10.6809 145.66 10.6409 144.97C10.5509 143.25 11.9409 141.72 13.6609 141.66C15.3809 141.6 16.8809 142.98 16.9209 144.74C16.9409 145.47 16.7009 146.15 16.2909 146.69C16.1309 146.91 16.2809 147.22 16.5509 147.21L21.7609 147.1C22.0609 147.1 22.3009 147.33 22.3109 147.62L22.4209 152.83C22.4209 153.1 22.1209 153.26 21.9009 153.09C21.3809 152.7 20.7409 152.47 20.0509 152.46C18.3309 152.44 16.8609 153.89 16.8709 155.62C16.8809 157.35 18.3309 158.78 20.0809 158.75C20.8109 158.73 21.4809 158.47 22.0009 158.04C22.2109 157.87 22.5309 158.01 22.5309 158.28L22.6409 163.49C22.6409 163.79 22.4109 164.03 22.1209 164.04L6.26086 164.37C5.96086 164.37 5.72086 164.14 5.71086 163.85L5.38086 147.99C5.38086 147.69 5.61086 147.45 5.90086 147.44L11.1109 147.33C11.3809 147.33 11.5209 147.01 11.3509 146.8V146.79Z" fill="#EAC9F8" stroke="#2E2A47" stroke-width="1.5" stroke-miterlimit="10"/>
<path d="M512.06 141.57C511.59 141 510.96 140.63 510.29 140.47C510.02 140.4 509.95 140.04 510.17 139.87L514.54 136.47C514.7 136.34 514.77 136.14 514.75 135.95C514.74 135.85 514.71 135.75 514.64 135.67L511.24 131.3C511.06 131.07 511.24 130.75 511.53 130.75C512.43 130.75 513.35 130.39 514.03 129.63C514.79 128.79 515.06 127.57 514.74 126.48C514.02 124.06 511.12 123.41 509.39 124.85C508.82 125.32 508.45 125.95 508.29 126.62C508.22 126.89 507.86 126.96 507.69 126.74L504.29 122.37C504.1 122.12 503.74 122.08 503.49 122.27L499.12 125.67C498.89 125.85 498.57 125.67 498.57 125.38C498.57 124.48 498.21 123.57 497.45 122.89C496.61 122.13 495.39 121.86 494.3 122.18C491.87 122.89 491.21 125.8 492.66 127.53C493.13 128.1 493.75 128.47 494.42 128.63C494.7 128.7 494.78 129.06 494.55 129.23L484.45 136.88C483.82 137.35 484.06 138.35 484.83 138.49L493.77 140.21C494.22 140.3 494.54 140.71 494.5 141.17L493.75 150.51C493.69 151.29 494.58 151.78 495.2 151.31L505.61 143.43C505.84 143.25 506.17 143.42 506.16 143.71C506.16 144.63 506.53 145.55 507.31 146.24C508.15 146.98 509.35 147.24 510.43 146.93C512.86 146.22 513.51 143.31 512.07 141.58L512.06 141.57Z" fill="#B5AEFF" stroke="#2E2A47" stroke-width="1.5" stroke-linecap="round" stroke-linejoin="round"/>
<path d="M169.859 139.61C169.069 140.45 168.619 141.49 168.499 142.56C168.449 143 167.909 143.17 167.589 142.86L161.479 136.76C161.249 136.53 160.929 136.47 160.639 136.54C160.489 136.58 160.339 136.64 160.229 136.76L154.129 142.87C153.799 143.2 153.269 142.98 153.219 142.53C153.049 141.13 152.309 139.79 150.999 138.88C149.549 137.87 147.609 137.69 145.989 138.4C142.389 139.98 141.939 144.59 144.499 146.98C145.339 147.77 146.379 148.22 147.449 148.34C147.889 148.39 148.059 148.93 147.749 149.25L141.649 155.36C141.299 155.71 141.299 156.27 141.649 156.62L147.759 162.72C148.089 163.05 147.869 163.58 147.419 163.63C146.029 163.8 144.689 164.54 143.779 165.84C142.759 167.29 142.589 169.22 143.289 170.85C144.859 174.47 149.479 174.92 151.879 172.35C152.659 171.51 153.119 170.48 153.239 169.41C153.289 168.96 153.829 168.78 154.149 169.09L167.939 183.22C168.799 184.1 170.279 183.55 170.359 182.32L171.279 168.17C171.329 167.45 171.909 166.88 172.629 166.85L187.219 166.19C188.439 166.14 189.019 164.66 188.169 163.79L173.959 149.23C173.639 148.91 173.829 148.37 174.279 148.32C175.699 148.15 177.059 147.39 177.969 146.06C178.959 144.62 179.119 142.7 178.419 141.1C176.839 137.49 172.229 137.04 169.829 139.6L169.859 139.61Z" fill="#D8F2C8" stroke="#2E2A47" stroke-width="1.5" stroke-miterlimit="10"/>
<path d="M394.249 230.81C393.749 231.22 393.119 231.48 392.429 231.52C390.709 231.61 389.179 230.22 389.119 228.5C389.059 226.74 390.439 225.28 392.199 225.24C392.929 225.22 393.609 225.46 394.149 225.87C394.369 226.03 394.679 225.88 394.669 225.61L394.559 220.4C394.559 220.1 394.789 219.86 395.079 219.85L400.289 219.74C400.559 219.74 400.719 220.04 400.549 220.26C400.159 220.78 399.929 221.42 399.919 222.11C399.899 223.83 401.349 225.3 403.079 225.29C404.809 225.28 406.239 223.83 406.209 222.08C406.189 221.35 405.929 220.68 405.499 220.16C405.329 219.95 405.469 219.63 405.739 219.63L410.949 219.52C411.249 219.52 411.489 219.75 411.499 220.04L411.829 235.9C411.829 236.2 411.599 236.44 411.309 236.45L395.449 236.78C395.149 236.78 394.909 236.55 394.899 236.26L394.789 231.05C394.789 230.78 394.469 230.64 394.259 230.81H394.249Z" fill="#EAC9F8" stroke="#2E2A47" stroke-width="1.5" stroke-miterlimit="10"/>
<path d="M492.06 78.8201C491.33 78.1201 489.88 68.2501 488.55 68.3301C487.22 68.4101 486.07 78.2001 485.45 78.8401C484.2 80.1301 475.11 81.0501 475.18 82.3001C475.26 83.5501 484.19 84.1401 485.45 85.3601C486.16 86.0401 487.64 95.9401 488.96 95.8601C490.28 95.7801 491.42 86.0301 492.06 85.3601C493.26 84.1101 502.43 83.1501 502.36 81.8901C502.28 80.6301 493.27 80.0001 492.06 78.8201Z" fill="#EAC9F8" stroke="#473E6B" stroke-miterlimit="10"/>
<path d="M47.4097 202.27C46.6797 201.57 45.2297 191.7 43.8997 191.78C42.5697 191.86 41.4197 201.65 40.7997 202.29C39.5497 203.58 30.4597 204.5 30.5297 205.75C30.6097 207 39.5397 207.59 40.7997 208.81C41.5097 209.49 42.9897 219.39 44.3097 219.31C45.6297 219.23 46.7697 209.48 47.4097 208.81C48.6097 207.56 57.7797 206.6 57.7097 205.34C57.6297 204.08 48.6197 203.45 47.4097 202.27Z" fill="#EAC9F8" stroke="#473E6B" stroke-miterlimit="10"/>
<path d="M544.63 161.75C544.05 161.19 542.89 153.33 541.84 153.4C540.78 153.46 539.86 161.25 539.37 161.77C538.38 162.8 531.14 163.53 531.19 164.53C531.25 165.53 538.36 166 539.37 166.97C539.93 167.51 541.11 175.39 542.17 175.33C543.22 175.27 544.13 167.5 544.64 166.97C545.6 165.98 552.9 165.21 552.84 164.21C552.78 163.21 545.61 162.71 544.64 161.77L544.63 161.75Z" fill="#C2E6F5" stroke="#473E6B" stroke-miterlimit="10"/>
<path d="M39.6395 98.37C39.0595 97.81 37.8995 89.95 36.8495 90.02C35.7895 90.08 34.8695 97.87 34.3795 98.39C33.3895 99.42 26.1495 100.15 26.1995 101.15C26.2595 102.15 33.3695 102.62 34.3795 103.59C34.9395 104.13 36.1195 112.01 37.1795 111.95C38.2295 111.89 39.1395 104.12 39.6495 103.59C40.6095 102.6 47.9095 101.83 47.8495 100.83C47.7895 99.83 40.6195 99.33 39.6495 98.39L39.6395 98.37Z" fill="#C2E6F5" stroke="#473E6B" stroke-miterlimit="10"/>
<path d="M150.86 218.19C150.28 217.63 149.12 209.77 148.07 209.84C147.01 209.9 146.09 217.69 145.6 218.21C144.61 219.24 137.37 219.97 137.42 220.97C137.48 221.97 144.59 222.44 145.6 223.41C146.16 223.95 147.34 231.83 148.4 231.77C149.45 231.71 150.36 223.94 150.87 223.41C151.83 222.42 159.13 221.65 159.07 220.65C159.01 219.65 151.84 219.15 150.87 218.21L150.86 218.19Z" fill="white" stroke="#473E6B" stroke-miterlimit="10"/>
<path d="M533.809 98.37C533.229 97.81 532.069 89.95 531.019 90.02C529.959 90.08 529.039 97.87 528.549 98.39C527.559 99.42 520.319 100.15 520.369 101.15C520.429 102.15 527.539 102.62 528.549 103.59C529.109 104.13 530.289 112.01 531.349 111.95C532.399 111.89 533.309 104.12 533.819 103.59C534.779 102.6 542.079 101.83 542.019 100.83C541.959 99.83 534.789 99.33 533.819 98.39L533.809 98.37Z" fill="white" stroke="#473E6B" stroke-miterlimit="10"/>
<path d="M127.919 45.01C125.659 41.67 121.909 39.42 117.629 39.21C115.659 34.39 110.929 31 105.399 31C100.509 31 96.2393 33.66 93.9493 37.62C88.6893 37.68 84.1693 40.82 82.0993 45.32C81.4593 46.72 82.4893 48.31 84.0293 48.31H126.169C127.859 48.31 128.869 46.41 127.919 45.01Z" fill="white" stroke="#473E6B" stroke-miterlimit="10"/>
<path d="M550.89 205.87C552.17 205.87 553.09 204.66 552.76 203.42C551.36 198.1 546.52 194.17 540.76 194.17C537.8 194.17 535.07 195.21 532.94 196.95C531.5 194.8 529.04 193.38 526.26 193.38C522.81 193.38 519.87 195.55 518.73 198.6C515.95 198.92 513.61 200.66 512.43 203.08C511.8 204.37 512.74 205.87 514.17 205.87H550.89Z" fill="white" stroke="#473E6B" stroke-miterlimit="10"/>
<path d="M554.829 59.8601C556.109 59.8601 557.029 58.6501 556.699 57.4101C555.299 52.0901 550.459 48.1601 544.699 48.1601C541.739 48.1601 539.009 49.2001 536.879 50.9401C535.439 48.7901 532.979 47.3701 530.199 47.3701C526.749 47.3701 523.809 49.5401 522.669 52.5901C519.889 52.9101 517.549 54.6501 516.369 57.0701C515.739 58.3601 516.679 59.8601 518.109 59.8601H554.829Z" fill="white" stroke="#473E6B" stroke-miterlimit="10"/>
<path d="M120.9 137.14C120.9 137.07 120.91 137 120.91 136.93C120.91 131.15 116.22 126.46 110.44 126.46C107.67 126.46 105.15 127.55 103.28 129.31C101.42 124.99 97.1296 121.96 92.1196 121.96C88.8496 121.96 85.8796 123.26 83.6896 125.36C81.3896 119.93 76.0096 116.13 69.7396 116.13C61.3796 116.13 54.5996 122.91 54.5996 131.27C54.5996 133.35 55.0196 135.33 55.7796 137.14H120.9Z" fill="white" stroke="#473E6B" stroke-miterlimit="10"/>
<path d="M160.77 235.7C160.77 235.64 160.77 235.58 160.77 235.52C160.77 230.67 164.7 226.73 169.56 226.73C171.89 226.73 174 227.64 175.57 229.12C177.13 225.49 180.74 222.95 184.94 222.95C187.69 222.95 190.18 224.04 192.01 225.81C193.94 221.25 198.46 218.06 203.72 218.06C210.74 218.06 216.43 223.75 216.43 230.77C216.43 232.52 216.08 234.18 215.44 235.69H160.77V235.7Z" fill="white" stroke="#473E6B" stroke-miterlimit="10"/>
<path d="M453.199 123.64C454.069 121.86 454.559 119.86 454.559 117.74C454.559 110.3 448.529 104.27 441.089 104.27C435.659 104.27 430.979 107.49 428.849 112.12C427.369 111.38 425.699 110.97 423.929 110.97C417.819 110.97 412.859 115.92 412.859 122.04C412.859 122.58 412.899 123.12 412.979 123.64H453.199Z" fill="white" stroke="#473E6B" stroke-miterlimit="10"/>
<path d="M369.811 66.85C370.011 66.24 370.441 65.7 371.061 65.39C374.091 63.86 375.161 62.08 376.531 59.82C378.021 57.36 379.701 54.57 383.981 52.35C388.251 50.14 391.491 50.36 394.361 50.56C396.931 50.74 398.971 50.88 401.881 49.39L402.081 49.28C404.961 47.77 406.021 46.02 407.361 43.81C408.851 41.35 410.531 38.56 414.811 36.34C419.081 34.13 422.321 34.35 425.191 34.55C427.761 34.73 429.801 34.87 432.691 33.39L432.801 33.33C435.591 31.83 436.641 30.1 437.961 27.92C439.451 25.46 441.131 22.67 445.411 20.45C449.681 18.24 452.921 18.46 455.791 18.66C458.411 18.84 460.491 18.99 463.491 17.4C466.561 15.85 467.631 14.07 468.991 11.81C470.481 9.34999 472.161 6.55999 476.441 4.33999C477.671 3.69999 479.181 4.17999 479.821 5.40999C480.461 6.63999 479.981 8.14999 478.751 8.78999C475.721 10.36 474.591 12.23 473.281 14.4C471.791 16.87 470.101 19.66 465.791 21.85C461.561 24.09 458.311 23.86 455.441 23.66C452.921 23.48 450.741 23.33 447.721 24.9C444.691 26.47 443.561 28.34 442.251 30.51C440.811 32.88 439.191 35.56 435.231 37.71C435.231 37.71 435.141 37.76 435.091 37.78C434.981 37.84 434.871 37.9 434.751 37.95C430.711 39.95 427.601 39.73 424.831 39.53C422.311 39.35 420.131 39.2 417.111 40.77C414.081 42.34 412.951 44.21 411.641 46.38C410.171 48.8 408.521 51.55 404.371 53.71C400.121 55.96 396.871 55.73 394.001 55.53C391.481 55.35 389.301 55.2 386.281 56.77C383.251 58.34 382.121 60.21 380.811 62.38C379.321 64.85 377.631 67.64 373.321 69.83C372.091 70.46 370.581 69.96 369.951 68.73C369.641 68.12 369.601 67.44 369.801 66.83L369.811 66.85Z" fill="#EAC9F8" stroke="#2E2A47" stroke-miterlimit="10"/>
<path d="M43.3796 255.59C42.5696 255.53 41.8096 255.08 41.3796 254.32C40.6996 253.12 41.1296 251.59 42.3296 250.91C45.2996 249.24 46.3696 247.33 47.5996 245.11C49.0096 242.59 50.5996 239.74 54.8296 237.41C58.9796 235.03 62.2396 235.15 65.1096 235.25C67.6396 235.34 69.8196 235.42 72.7896 233.75C75.7596 232.08 76.8296 230.17 78.0596 227.95C79.4096 225.53 80.9396 222.79 84.8296 220.51C84.8796 220.48 84.9296 220.45 84.9796 220.42C85.0796 220.36 85.1896 220.3 85.2896 220.25C89.2496 218.12 92.3796 218.23 95.1496 218.33C97.6796 218.42 99.8596 218.5 102.82 216.83C105.79 215.16 106.86 213.25 108.09 211.03C109.49 208.52 111.08 205.68 115.28 203.36C119.37 201.07 122.57 201.19 125.4 201.29C127.93 201.38 130.11 201.46 133.08 199.79C136.05 198.12 137.12 196.21 138.35 193.99C139.76 191.47 141.35 188.62 145.58 186.29C146.79 185.62 148.31 186.06 148.98 187.28C149.65 188.5 149.21 190.01 147.99 190.68C145.02 192.32 144 194.13 142.72 196.43C141.32 198.94 139.73 201.79 135.53 204.15C131.34 206.51 128.09 206.39 125.22 206.29C122.65 206.2 120.6 206.13 117.75 207.71L117.55 207.82C114.71 209.43 113.72 211.22 112.46 213.47C111.06 215.98 109.47 218.83 105.27 221.19C101.08 223.55 97.8296 223.43 94.9596 223.33C92.3896 223.24 90.3496 223.17 87.5096 224.74L87.3996 224.8C84.6496 226.39 83.6596 228.17 82.4196 230.39C81.0196 232.9 79.4296 235.75 75.2296 238.11C71.0396 240.47 67.7896 240.35 64.9196 240.25C62.2896 240.16 60.2096 240.08 57.2696 241.77C54.2596 243.43 53.2396 245.24 51.9596 247.54C50.5596 250.05 48.9696 252.9 44.7696 255.26C44.3196 255.51 43.8296 255.61 43.3596 255.57L43.3796 255.59Z" fill="#B5AEFF" stroke="#2E2A47" stroke-miterlimit="10"/>
<path d="M477.641 46.3101C477.641 45.5901 477.951 44.8701 478.551 44.3801L478.761 44.2101C480.661 42.6101 481.191 41.0901 481.851 39.1901C482.601 37.0301 483.541 34.3401 486.671 31.7601C489.811 29.1801 492.641 28.7801 494.911 28.4601C496.911 28.1801 498.511 27.9601 500.451 26.3901C500.461 26.3801 500.481 26.3701 500.491 26.3501L500.631 26.2401C502.581 24.6201 503.111 23.0901 503.781 21.1701C504.531 19.0101 505.471 16.3201 508.601 13.7401C509.671 12.8601 511.251 13.0201 512.121 14.0901C513.001 15.1601 512.841 16.7401 511.771 17.6101C509.721 19.2901 509.181 20.8501 508.501 22.8101C507.721 25.0501 506.841 27.5801 503.821 30.0901C500.701 32.7101 497.981 33.0901 495.591 33.4201C493.521 33.7101 491.891 33.9401 489.841 35.6301C487.791 37.3101 487.251 38.8701 486.571 40.8301C485.811 43.0001 484.961 45.4501 482.141 47.8901C482.101 47.9201 482.071 47.9501 482.031 47.9801L481.951 48.0501C481.871 48.1201 481.791 48.1901 481.701 48.2501C480.631 49.1201 479.061 48.9501 478.191 47.8901C477.811 47.4201 477.631 46.8601 477.631 46.3101H477.641Z" fill="#D8F2C8" stroke="#2E2A47" stroke-miterlimit="10"/>
<path d="M49.8406 282.5C50.0606 281.81 50.5806 281.23 51.3006 280.94L51.5506 280.84C53.8506 279.9 54.8206 278.62 56.0406 277.01C57.4206 275.19 59.1306 272.92 62.9106 271.43C66.6906 269.94 69.5006 270.43 71.7606 270.83C73.7506 271.18 75.3406 271.46 77.6706 270.56C77.6906 270.56 77.7106 270.55 77.7206 270.54L77.8906 270.48C80.2506 269.54 81.2206 268.25 82.4506 266.62C83.8306 264.8 85.5406 262.53 89.3206 261.04C90.6106 260.53 92.0606 261.17 92.5706 262.45C93.0806 263.74 92.4406 265.19 91.1606 265.7C88.6906 266.67 87.7006 267.98 86.4506 269.64C85.0206 271.53 83.4106 273.66 79.7506 275.13C75.9706 276.66 73.2706 276.19 70.8906 275.77C68.8406 275.41 67.2106 275.13 64.7406 276.1C62.2706 277.07 61.2806 278.38 60.0306 280.04C58.6406 281.87 57.0806 283.94 53.6506 285.4C53.6106 285.42 53.5606 285.44 53.5206 285.46L53.4206 285.5C53.3206 285.54 53.2206 285.58 53.1206 285.62C51.8306 286.12 50.3906 285.48 49.8906 284.19C49.6706 283.63 49.6706 283.04 49.8406 282.51V282.5Z" fill="#EAC9F8" stroke="#2E2A47" stroke-miterlimit="10"/>
<path d="M21.5909 25.9199C22.3109 25.9899 22.9909 26.3699 23.4209 27.0199L23.5709 27.2399C24.9809 29.2899 26.4309 29.9699 28.2509 30.8199C30.3209 31.7799 32.9009 32.9799 35.1609 36.3599C37.4109 39.7499 37.5309 42.5899 37.6109 44.8799C37.6909 46.8999 37.7508 48.5099 39.1208 50.5999C39.1308 50.6199 39.1409 50.6299 39.1509 50.6499L39.2509 50.7999C40.6709 52.9099 42.1409 53.5899 43.9809 54.4399C46.0508 55.3999 48.6308 56.5999 50.8909 59.9799C51.6609 61.1299 51.3508 62.6899 50.1908 63.4499C49.0408 64.2199 47.4809 63.9099 46.7209 62.7499C45.2509 60.5399 43.7608 59.8499 41.8708 58.9699C39.7208 57.9699 37.2908 56.8399 35.1008 53.5799C32.8108 50.2099 32.7009 47.4699 32.6109 45.0599C32.5309 42.9799 32.4708 41.3299 30.9909 39.1199C29.5209 36.9099 28.0309 36.2199 26.1409 35.3399C24.0509 34.3699 21.7009 33.2799 19.5609 30.2299C19.5309 30.1899 19.5009 30.1499 19.4809 30.1099L19.4209 30.0199C19.3609 29.9299 19.3009 29.8399 19.2409 29.7599C18.4809 28.6099 18.8009 27.0599 19.9509 26.2999C20.4509 25.9699 21.0309 25.8399 21.5809 25.8999L21.5909 25.9199Z" fill="#B5AEFF" stroke="#2E2A47" stroke-miterlimit="10"/>
<path d="M442.63 235.57C443.35 235.64 444.03 236.02 444.46 236.67L444.61 236.89C446.02 238.94 447.47 239.62 449.29 240.47C451.36 241.43 453.94 242.63 456.2 246.01C458.45 249.4 458.57 252.24 458.65 254.53C458.73 256.55 458.79 258.16 460.16 260.25C460.17 260.27 460.18 260.28 460.19 260.3L460.29 260.45C461.71 262.56 463.18 263.24 465.02 264.09C467.09 265.05 469.67 266.25 471.93 269.63C472.7 270.78 472.39 272.34 471.23 273.1C470.08 273.87 468.52 273.56 467.76 272.4C466.29 270.19 464.8 269.5 462.91 268.62C460.76 267.62 458.33 266.49 456.14 263.23C453.85 259.86 453.74 257.12 453.65 254.71C453.57 252.63 453.51 250.98 452.03 248.77C450.56 246.56 449.07 245.87 447.18 244.99C445.09 244.02 442.74 242.93 440.6 239.88C440.57 239.84 440.54 239.8 440.52 239.76L440.46 239.67C440.4 239.58 440.34 239.49 440.28 239.41C439.52 238.26 439.84 236.71 440.99 235.95C441.49 235.62 442.07 235.49 442.62 235.55L442.63 235.57Z" fill="#EAC9F8" stroke="#2E2A47" stroke-miterlimit="10"/>
<path d="M495.01 222.33C495.7 222.11 496.48 222.2 497.13 222.62L497.35 222.77C499.45 224.11 501.05 224.16 503.06 224.22C505.34 224.29 508.19 224.38 511.59 226.6C514.99 228.83 516.21 231.4 517.2 233.47C518.07 235.3 518.75 236.75 520.84 238.14C520.86 238.15 520.87 238.16 520.89 238.17L521.04 238.27C523.17 239.65 524.79 239.7 526.82 239.76C529.11 239.83 531.95 239.92 535.35 242.14C536.51 242.9 536.83 244.45 536.07 245.61C535.31 246.77 533.76 247.09 532.6 246.33C530.38 244.88 528.74 244.83 526.66 244.76C524.29 244.69 521.62 244.6 518.31 242.46C514.88 240.26 513.71 237.78 512.67 235.6C511.78 233.72 511.07 232.23 508.85 230.77C506.63 229.32 504.99 229.27 502.91 229.2C500.61 229.13 498.02 229.05 494.85 227.08C494.81 227.06 494.77 227.03 494.73 227L494.64 226.94C494.55 226.88 494.46 226.83 494.37 226.77C493.22 226.01 492.91 224.46 493.67 223.31C494 222.81 494.48 222.47 495.01 222.3V222.33Z" fill="#B5AEFF" stroke="#2E2A47" stroke-miterlimit="10"/>
<path d="M465.1 228.74C472.291 228.74 478.12 222.911 478.12 215.72C478.12 208.529 472.291 202.7 465.1 202.7C457.909 202.7 452.08 208.529 452.08 215.72C452.08 222.911 457.909 228.74 465.1 228.74Z" fill="#C2E6F5" stroke="#2E2A47" stroke-miterlimit="10"/>
<path fill-rule="evenodd" clip-rule="evenodd" d="M466.369 205.48L467.059 205.88C467.449 206.1 467.879 206.22 468.329 206.22H469.119C470.029 206.22 470.869 206.7 471.319 207.49L471.719 208.18C471.939 208.57 472.259 208.89 472.649 209.11L473.339 209.51C474.129 209.96 474.609 210.8 474.609 211.71V212.5C474.609 212.95 474.729 213.38 474.949 213.77L475.349 214.46C475.799 215.25 475.799 216.21 475.349 217L474.949 217.69C474.729 218.08 474.609 218.51 474.609 218.96V219.75C474.609 220.66 474.129 221.5 473.339 221.95L472.649 222.35C472.259 222.57 471.939 222.89 471.719 223.28L471.319 223.97C470.869 224.76 470.029 225.24 469.119 225.24H468.329C467.879 225.24 467.449 225.36 467.059 225.58L466.369 225.98C465.579 226.43 464.619 226.43 463.829 225.98L463.139 225.58C462.749 225.36 462.319 225.24 461.869 225.24H461.079C460.169 225.24 459.329 224.76 458.879 223.97L458.479 223.28C458.259 222.89 457.939 222.57 457.549 222.35L456.859 221.95C456.069 221.5 455.589 220.66 455.589 219.75V218.96C455.589 218.51 455.469 218.08 455.249 217.69L454.849 217C454.399 216.21 454.399 215.25 454.849 214.46L455.249 213.77C455.469 213.38 455.589 212.95 455.589 212.5V211.71C455.589 210.8 456.069 209.96 456.859 209.51L457.549 209.11C457.939 208.89 458.259 208.57 458.479 208.18L458.879 207.49C459.329 206.7 460.169 206.22 461.079 206.22H461.869C462.319 206.22 462.749 206.1 463.139 205.88L463.829 205.48C464.619 205.03 465.579 205.03 466.369 205.48Z" fill="#EAC9F8" stroke="#2E2A47" stroke-miterlimit="10"/>
<path d="M155.738 75.52H211.748V70.39H155.738V75.52Z" fill="#B5AEFF"/>
<path d="M212.248 76.0299H155.238V69.8999H212.248V76.0299ZM156.238 75.0299H211.248V70.8999H156.238V75.0299Z" fill="#2E2A47"/>
<path d="M180.141 85.6401H178.641V88.7701H180.141V85.6401Z" fill="#473E6B"/>
<path d="M180.141 93.5002H178.641V98.2302H180.141V93.5002Z" fill="#473E6B"/>
<path d="M180.14 106.85H176.26V105.35H178.64V102.97H180.14V106.85Z" fill="#473E6B"/>
<path d="M169.46 106.85H162.67V105.35H169.46V106.85ZM155.88 106.85H149.09V105.35H155.88V106.85ZM142.3 106.85H135.51V105.35H142.3V106.85ZM128.72 106.85H121.93V105.35H128.72V106.85Z" fill="#473E6B"/>
<path d="M115.14 106.85H111.25V102.97H112.75V105.35H115.14V106.85Z" fill="#473E6B"/>
<path d="M112.75 96.5801H111.25V99.7801H112.75V96.5801Z" fill="#473E6B"/>
<path d="M112.75 90.2502H111.25V93.3802H112.75V90.2502Z" fill="#473E6B"/>
<path d="M404.129 241.38H402.629V244.51H404.129V241.38Z" fill="#473E6B"/>
<path d="M404.129 249.24H402.629V253.97H404.129V249.24Z" fill="#473E6B"/>
<path d="M404.128 262.59H400.238V261.09H402.628V258.71H404.128V262.59Z" fill="#473E6B"/>
<path d="M393.448 262.59H386.658V261.09H393.448V262.59ZM379.868 262.59H373.078V261.09H379.868V262.59ZM366.288 262.59H359.498V261.09H366.288V262.59ZM352.708 262.59H345.918V261.09H352.708V262.59Z" fill="#473E6B"/>
<path d="M339.128 262.59H335.238V258.71H336.738V261.09H339.128V262.59Z" fill="#473E6B"/>
<path d="M336.738 252.32H335.238V255.52H336.738V252.32Z" fill="#473E6B"/>
<path d="M336.738 245.99H335.238V249.12H336.738V245.99Z" fill="#473E6B"/>
<path d="M96.8385 76.71C97.7885 81.46 100.949 85.69 105.709 87.81C113.489 91.28 122.659 87.78 126.129 79.98C126.609 78.91 126.949 77.81 127.169 76.7C127.939 72.87 127.199 68.94 125.239 65.69C123.669 63.07 121.299 60.89 118.309 59.55C118.209 59.5 118.099 59.46 117.999 59.41C116.329 58.71 114.589 58.32 112.869 58.23C110.349 58.09 107.869 58.58 105.609 59.6C105.579 59.6 105.549 59.62 105.519 59.64C103.919 60.37 102.439 61.39 101.159 62.64C99.8085 63.96 98.6885 65.55 97.8785 67.37C97.5885 68.02 97.3485 68.68 97.1585 69.34C96.4485 71.79 96.3585 74.3 96.8485 76.69L96.8385 76.71ZM101.709 76.71C101.199 74.98 101.119 73.13 101.529 71.31C101.689 70.64 101.899 69.98 102.199 69.32C102.669 68.27 103.279 67.33 104.019 66.52C105.269 65.13 106.849 64.11 108.589 63.52C108.589 63.52 108.599 63.52 108.609 63.52C110.639 62.85 112.859 62.77 115.009 63.4C115.059 63.4 115.099 63.42 115.139 63.44C115.559 63.56 115.969 63.72 116.379 63.9C118.549 64.87 120.229 66.47 121.319 68.39C121.329 68.41 121.349 68.44 121.349 68.46C122.729 70.91 123.129 73.9 122.289 76.73C122.149 77.19 121.989 77.63 121.789 78.08C119.379 83.48 113.029 85.92 107.619 83.51C104.639 82.18 102.559 79.65 101.709 76.73V76.71Z" fill="#EAC9F8" stroke="#2E2A47" stroke-miterlimit="10"/>
<path d="M96.8388 76.71H101.709C101.199 74.98 101.119 73.13 101.529 71.31C101.689 70.64 101.899 69.98 102.199 69.32C102.669 68.27 103.279 67.33 104.019 66.52C105.269 65.13 106.849 64.11 108.589 63.52C108.589 63.52 108.599 63.52 108.609 63.52C110.639 62.85 112.859 62.77 115.009 63.4C115.059 63.4 115.099 63.42 115.139 63.44C115.559 63.56 115.969 63.72 116.379 63.9C118.549 64.87 120.229 66.47 121.319 68.39C121.329 68.41 121.349 68.44 121.349 68.46C122.729 70.91 123.129 73.9 122.289 76.73H127.159C127.929 72.9 127.189 68.97 125.229 65.72C123.659 63.1 121.289 60.92 118.299 59.58C118.199 59.53 118.089 59.49 117.989 59.44C116.319 58.74 114.579 58.35 112.859 58.26C110.339 58.12 107.859 58.61 105.599 59.63C105.569 59.63 105.539 59.65 105.509 59.67C103.909 60.4 102.429 61.42 101.149 62.67C99.7988 63.99 98.6788 65.58 97.8688 67.4C97.5788 68.05 97.3388 68.71 97.1488 69.37C96.4388 71.82 96.3488 74.33 96.8388 76.72V76.71Z" fill="#B5AEFF"/>
<path d="M127.579 77.21H121.629L121.819 76.57C122.589 73.95 122.259 71.08 120.919 68.69C119.799 66.72 118.179 65.24 116.179 64.35C115.739 64.16 115.369 64.02 115.009 63.92L114.879 63.88C112.889 63.3 110.789 63.33 108.799 63.99L108.689 64.03C107.049 64.6 105.569 65.58 104.399 66.87C103.689 67.65 103.109 68.54 102.669 69.54C102.399 70.14 102.189 70.77 102.029 71.44C101.649 73.13 101.699 74.91 102.199 76.59L102.389 77.23H96.4392L96.3592 76.83C95.8492 74.33 95.9692 71.7 96.6792 69.24C96.8692 68.58 97.1192 67.9 97.4192 67.21C98.2492 65.36 99.3892 63.72 100.809 62.32C102.119 61.03 103.639 59.99 105.309 59.22L105.489 59.15C107.749 58.11 110.339 57.62 112.899 57.76C114.719 57.86 116.499 58.27 118.189 58.98L118.519 59.12C121.519 60.46 123.989 62.65 125.669 65.45C127.739 68.88 128.439 72.91 127.659 76.81L127.579 77.21ZM122.939 76.21H126.749C127.359 72.68 126.669 69.06 124.809 65.96C123.239 63.33 120.919 61.28 118.099 60.02L117.779 59.88C116.209 59.22 114.539 58.84 112.829 58.74C110.429 58.61 107.999 59.07 105.799 60.07C104.149 60.83 102.729 61.81 101.499 63.01C100.169 64.31 99.0992 65.85 98.3192 67.59C98.0292 68.24 97.7992 68.88 97.6192 69.49C96.9792 71.67 96.8592 73.98 97.2392 76.2H101.049C100.669 74.55 100.659 72.83 101.029 71.18C101.199 70.45 101.429 69.76 101.729 69.1C102.219 68.01 102.859 67.02 103.629 66.17C104.919 64.74 106.559 63.66 108.389 63.04L108.509 63C110.679 62.29 112.969 62.26 115.139 62.9C115.139 62.9 115.259 62.93 115.349 62.97C115.659 63.05 116.079 63.2 116.559 63.41C118.759 64.39 120.549 66.01 121.739 68.11L121.809 68.27C123.139 70.62 123.549 73.5 122.929 76.19L122.939 76.21Z" fill="#2E2A47"/>
<path d="M155.738 84.6602H189.768V79.5302H155.738V84.6602Z" fill="#B5AEFF"/>
<path d="M190.268 85.16H155.238V79.03H190.268V85.16ZM156.238 84.16H189.268V80.03H156.238V84.16Z" fill="#2E2A47"/>
<path d="M254.141 48.8099H252.641V48.4499H254.141V48.8099ZM254.141 42.1799H252.641V35.9199H254.141V42.1799ZM254.141 29.6599H252.641V26.6499H250.891V25.1499H254.141V29.6599ZM244.621 26.6499H238.361V25.1499H244.621V26.6499ZM232.101 26.6499H225.841V25.1499H232.101V26.6499ZM219.581 26.6499H213.321V25.1499H219.581V26.6499ZM207.061 26.6499H200.801V25.1499H207.061V26.6499Z" fill="#473E6B"/>
<path d="M476.75 193.38H475.25V191.91H476.75V193.38ZM476.75 185.64H475.25V179.38H476.75V185.64ZM476.75 173.11H475.25V171.09H480.99V172.59H476.75V173.11ZM502.28 172.59H499.78V171.09H500.78V167.32H502.28V172.59ZM493.52 172.59H487.26V171.09H493.52V172.59ZM502.28 161.06H500.78V154.8H502.28V161.06Z" fill="#473E6B"/>
<path d="M112.861 180.58H107.451V179.08H112.861V180.58ZM101.191 180.58H94.9308V179.08H101.191V180.58ZM88.6708 180.58H82.4108V179.08H88.6708V180.58ZM76.1508 180.58H69.8908V179.08H76.1508V180.58ZM63.6308 180.58H56.9808V179.47H57.7308V179.08H63.6308V180.58ZM58.4808 173.21H56.9808V166.95H58.4808V173.21ZM58.4808 160.69H56.9808V157.31H55.5908V155.81H58.4808V160.69ZM49.3308 157.31H43.0708V155.81H49.3308V157.31ZM36.8108 157.31H30.5508V155.81H36.8108V157.31Z" fill="#473E6B"/>
</svg>
